<mxfile host="app.diagrams.net" modified="2021-11-15T05:03:12.233Z" agent="5.0 (Windows NT 10.0; Win64; x64) AppleWebKit/537.36 (KHTML, like Gecko) Chrome/95.0.4638.69 Safari/537.36" etag="Ql6bvT3rw1V3vUJhfhIo" version="15.7.3" type="github" pages="3">
  <diagram id="QlY2_jZfxCHkPhPJcKBc" name="Page-1">
    <mxGraphModel dx="1043" dy="941" grid="0" gridSize="10" guides="1" tooltips="1" connect="1" arrows="1" fold="1" page="1" pageScale="1" pageWidth="1169" pageHeight="1654" math="0" shadow="0">
      <root>
        <mxCell id="0" />
        <mxCell id="1" parent="0" />
        <mxCell id="VQDOe3XahySQeZC1Gr37-5" style="edgeStyle=orthogonalEdgeStyle;rounded=0;orthogonalLoop=1;jettySize=auto;html=1;exitX=0.5;exitY=1;exitDx=0;exitDy=0;entryX=0.5;entryY=0;entryDx=0;entryDy=0;fontSize=16;" edge="1" parent="1" source="VQDOe3XahySQeZC1Gr37-1" target="VQDOe3XahySQeZC1Gr37-2">
          <mxGeometry relative="1" as="geometry" />
        </mxCell>
        <mxCell id="VQDOe3XahySQeZC1Gr37-11" style="edgeStyle=orthogonalEdgeStyle;rounded=0;orthogonalLoop=1;jettySize=auto;html=1;exitX=0.5;exitY=1;exitDx=0;exitDy=0;fontSize=16;" edge="1" parent="1" source="VQDOe3XahySQeZC1Gr37-1" target="VQDOe3XahySQeZC1Gr37-3">
          <mxGeometry relative="1" as="geometry" />
        </mxCell>
        <mxCell id="VQDOe3XahySQeZC1Gr37-12" style="edgeStyle=orthogonalEdgeStyle;rounded=0;orthogonalLoop=1;jettySize=auto;html=1;exitX=0.5;exitY=1;exitDx=0;exitDy=0;fontSize=16;" edge="1" parent="1" source="VQDOe3XahySQeZC1Gr37-1" target="VQDOe3XahySQeZC1Gr37-4">
          <mxGeometry relative="1" as="geometry" />
        </mxCell>
        <mxCell id="VQDOe3XahySQeZC1Gr37-1" value="&lt;b&gt;&lt;font style=&quot;font-size: 16px&quot;&gt;Tổng giám &lt;br&gt;đốc&lt;/font&gt;&lt;/b&gt;" style="rounded=1;whiteSpace=wrap;html=1;" vertex="1" parent="1">
          <mxGeometry x="326" y="356" width="120" height="60" as="geometry" />
        </mxCell>
        <mxCell id="VQDOe3XahySQeZC1Gr37-2" value="&lt;b&gt;Giám đốc&amp;nbsp;&lt;br&gt;công nghệ&lt;br&gt;&lt;/b&gt;" style="rounded=1;whiteSpace=wrap;html=1;fontSize=16;" vertex="1" parent="1">
          <mxGeometry x="86" y="473" width="120" height="60" as="geometry" />
        </mxCell>
        <mxCell id="VQDOe3XahySQeZC1Gr37-3" value="&lt;b&gt;Giám đốc&amp;nbsp;&lt;br&gt;tài chính&lt;/b&gt;" style="rounded=1;whiteSpace=wrap;html=1;fontSize=16;" vertex="1" parent="1">
          <mxGeometry x="419" y="473" width="120" height="60" as="geometry" />
        </mxCell>
        <mxCell id="VQDOe3XahySQeZC1Gr37-4" value="&lt;b&gt;Phó tổng &lt;br&gt;giám đốc&lt;/b&gt;" style="rounded=1;whiteSpace=wrap;html=1;fontSize=16;" vertex="1" parent="1">
          <mxGeometry x="674" y="473" width="120" height="60" as="geometry" />
        </mxCell>
        <mxCell id="VQDOe3XahySQeZC1Gr37-9" value="" style="endArrow=none;html=1;rounded=0;fontSize=16;entryX=0.5;entryY=1;entryDx=0;entryDy=0;" edge="1" parent="1" target="VQDOe3XahySQeZC1Gr37-1">
          <mxGeometry width="50" height="50" relative="1" as="geometry">
            <mxPoint x="386" y="571" as="sourcePoint" />
            <mxPoint x="425" y="495" as="targetPoint" />
          </mxGeometry>
        </mxCell>
        <mxCell id="VQDOe3XahySQeZC1Gr37-13" value="" style="endArrow=none;html=1;rounded=0;fontSize=16;" edge="1" parent="1">
          <mxGeometry width="50" height="50" relative="1" as="geometry">
            <mxPoint x="14" y="571" as="sourcePoint" />
            <mxPoint x="720" y="571" as="targetPoint" />
          </mxGeometry>
        </mxCell>
        <mxCell id="VQDOe3XahySQeZC1Gr37-14" value="" style="endArrow=none;html=1;rounded=0;fontSize=16;" edge="1" parent="1">
          <mxGeometry width="50" height="50" relative="1" as="geometry">
            <mxPoint x="15" y="572" as="sourcePoint" />
            <mxPoint x="15" y="1039" as="targetPoint" />
          </mxGeometry>
        </mxCell>
        <mxCell id="VQDOe3XahySQeZC1Gr37-15" value="" style="endArrow=classic;html=1;rounded=0;fontSize=16;" edge="1" parent="1">
          <mxGeometry width="50" height="50" relative="1" as="geometry">
            <mxPoint x="90" y="572" as="sourcePoint" />
            <mxPoint x="90" y="601" as="targetPoint" />
          </mxGeometry>
        </mxCell>
        <mxCell id="VQDOe3XahySQeZC1Gr37-16" value="&lt;b&gt;Ban giám đốc&lt;/b&gt;" style="rounded=1;whiteSpace=wrap;html=1;fontSize=16;" vertex="1" parent="1">
          <mxGeometry x="33" y="602" width="120" height="60" as="geometry" />
        </mxCell>
        <mxCell id="VQDOe3XahySQeZC1Gr37-18" value="" style="endArrow=classic;html=1;rounded=0;fontSize=16;entryX=0.5;entryY=0;entryDx=0;entryDy=0;" edge="1" parent="1" target="VQDOe3XahySQeZC1Gr37-19">
          <mxGeometry width="50" height="50" relative="1" as="geometry">
            <mxPoint x="244" y="570" as="sourcePoint" />
            <mxPoint x="244" y="606" as="targetPoint" />
          </mxGeometry>
        </mxCell>
        <mxCell id="VQDOe3XahySQeZC1Gr37-21" style="edgeStyle=orthogonalEdgeStyle;rounded=0;orthogonalLoop=1;jettySize=auto;html=1;exitX=0.5;exitY=1;exitDx=0;exitDy=0;fontSize=16;" edge="1" parent="1" source="VQDOe3XahySQeZC1Gr37-19">
          <mxGeometry relative="1" as="geometry">
            <mxPoint x="244" y="695" as="targetPoint" />
          </mxGeometry>
        </mxCell>
        <mxCell id="VQDOe3XahySQeZC1Gr37-19" value="&lt;b&gt;Giám đốc&lt;br&gt;chiến lược&lt;br&gt;&lt;/b&gt;" style="rounded=1;whiteSpace=wrap;html=1;fontSize=16;" vertex="1" parent="1">
          <mxGeometry x="184" y="602" width="120" height="60" as="geometry" />
        </mxCell>
        <mxCell id="VQDOe3XahySQeZC1Gr37-22" value="&lt;b&gt;Phó giám đốc&lt;br&gt;chiến lược&lt;br&gt;&lt;/b&gt;" style="rounded=1;whiteSpace=wrap;html=1;fontSize=16;" vertex="1" parent="1">
          <mxGeometry x="184" y="698" width="120" height="60" as="geometry" />
        </mxCell>
        <mxCell id="VQDOe3XahySQeZC1Gr37-23" value="" style="endArrow=classic;html=1;rounded=0;fontSize=16;entryX=0.5;entryY=0;entryDx=0;entryDy=0;" edge="1" parent="1">
          <mxGeometry width="50" height="50" relative="1" as="geometry">
            <mxPoint x="458" y="570" as="sourcePoint" />
            <mxPoint x="458" y="602" as="targetPoint" />
          </mxGeometry>
        </mxCell>
        <mxCell id="VQDOe3XahySQeZC1Gr37-37" style="edgeStyle=orthogonalEdgeStyle;rounded=0;orthogonalLoop=1;jettySize=auto;html=1;exitX=0.5;exitY=1;exitDx=0;exitDy=0;fontSize=16;" edge="1" parent="1" source="VQDOe3XahySQeZC1Gr37-24">
          <mxGeometry relative="1" as="geometry">
            <mxPoint x="461" y="694" as="targetPoint" />
          </mxGeometry>
        </mxCell>
        <mxCell id="VQDOe3XahySQeZC1Gr37-24" value="&lt;b&gt;Giám đốc&lt;br&gt;&amp;nbsp;nhân sự&lt;br&gt;&lt;/b&gt;" style="rounded=1;whiteSpace=wrap;html=1;fontSize=16;" vertex="1" parent="1">
          <mxGeometry x="401" y="602" width="120" height="60" as="geometry" />
        </mxCell>
        <mxCell id="VQDOe3XahySQeZC1Gr37-25" value="" style="endArrow=classic;html=1;rounded=0;fontSize=16;entryX=0.5;entryY=0;entryDx=0;entryDy=0;" edge="1" parent="1">
          <mxGeometry width="50" height="50" relative="1" as="geometry">
            <mxPoint x="720" y="570" as="sourcePoint" />
            <mxPoint x="720" y="602" as="targetPoint" />
          </mxGeometry>
        </mxCell>
        <mxCell id="VQDOe3XahySQeZC1Gr37-31" style="edgeStyle=orthogonalEdgeStyle;rounded=0;orthogonalLoop=1;jettySize=auto;html=1;exitX=0.5;exitY=1;exitDx=0;exitDy=0;fontSize=16;" edge="1" parent="1" source="VQDOe3XahySQeZC1Gr37-27" target="VQDOe3XahySQeZC1Gr37-29">
          <mxGeometry relative="1" as="geometry" />
        </mxCell>
        <mxCell id="VQDOe3XahySQeZC1Gr37-34" style="edgeStyle=orthogonalEdgeStyle;rounded=0;orthogonalLoop=1;jettySize=auto;html=1;exitX=0.5;exitY=1;exitDx=0;exitDy=0;fontSize=16;" edge="1" parent="1" source="VQDOe3XahySQeZC1Gr37-27" target="VQDOe3XahySQeZC1Gr37-30">
          <mxGeometry relative="1" as="geometry" />
        </mxCell>
        <mxCell id="VQDOe3XahySQeZC1Gr37-27" value="&lt;b&gt;Giám đốc&lt;br&gt;&amp;nbsp;Marketing&lt;br&gt;&lt;/b&gt;" style="rounded=1;whiteSpace=wrap;html=1;fontSize=16;" vertex="1" parent="1">
          <mxGeometry x="660" y="602" width="120" height="60" as="geometry" />
        </mxCell>
        <mxCell id="VQDOe3XahySQeZC1Gr37-29" value="&lt;b&gt;Thị trường&amp;nbsp;&lt;br&gt;nội địa&lt;br&gt;&lt;/b&gt;" style="rounded=1;whiteSpace=wrap;html=1;fontSize=16;" vertex="1" parent="1">
          <mxGeometry x="599" y="700" width="120" height="60" as="geometry" />
        </mxCell>
        <mxCell id="VQDOe3XahySQeZC1Gr37-30" value="&lt;b&gt;Thị trường nước ngoài&lt;br&gt;&lt;/b&gt;" style="rounded=1;whiteSpace=wrap;html=1;fontSize=16;" vertex="1" parent="1">
          <mxGeometry x="730" y="700" width="117" height="60" as="geometry" />
        </mxCell>
        <mxCell id="VQDOe3XahySQeZC1Gr37-35" value="" style="endArrow=none;html=1;rounded=0;fontSize=16;exitX=0.5;exitY=1;exitDx=0;exitDy=0;entryX=0.5;entryY=0;entryDx=0;entryDy=0;" edge="1" parent="1" source="VQDOe3XahySQeZC1Gr37-29" target="VQDOe3XahySQeZC1Gr37-39">
          <mxGeometry width="50" height="50" relative="1" as="geometry">
            <mxPoint x="486" y="582" as="sourcePoint" />
            <mxPoint x="722" y="814" as="targetPoint" />
          </mxGeometry>
        </mxCell>
        <mxCell id="VQDOe3XahySQeZC1Gr37-36" value="" style="endArrow=none;html=1;rounded=0;fontSize=16;entryX=0.5;entryY=1;entryDx=0;entryDy=0;exitX=0.5;exitY=0;exitDx=0;exitDy=0;" edge="1" parent="1" source="VQDOe3XahySQeZC1Gr37-39" target="VQDOe3XahySQeZC1Gr37-30">
          <mxGeometry width="50" height="50" relative="1" as="geometry">
            <mxPoint x="725" y="815" as="sourcePoint" />
            <mxPoint x="732" y="824" as="targetPoint" />
          </mxGeometry>
        </mxCell>
        <mxCell id="VQDOe3XahySQeZC1Gr37-38" value="&lt;b&gt;Trưởng phòng nhân sự khu vực&lt;br&gt;&lt;/b&gt;" style="rounded=1;whiteSpace=wrap;html=1;fontSize=16;" vertex="1" parent="1">
          <mxGeometry x="393" y="698" width="136" height="62" as="geometry" />
        </mxCell>
        <mxCell id="VQDOe3XahySQeZC1Gr37-39" value="&lt;b&gt;Thị trường nước ngoài&lt;/b&gt;&lt;b&gt;&lt;br&gt;&lt;/b&gt;" style="rounded=1;whiteSpace=wrap;html=1;fontSize=16;" vertex="1" parent="1">
          <mxGeometry x="666" y="809" width="120" height="60" as="geometry" />
        </mxCell>
        <mxCell id="VQDOe3XahySQeZC1Gr37-40" value="" style="endArrow=none;html=1;rounded=0;fontSize=16;entryX=0.518;entryY=0;entryDx=0;entryDy=0;entryPerimeter=0;" edge="1" parent="1" target="VQDOe3XahySQeZC1Gr37-41">
          <mxGeometry width="50" height="50" relative="1" as="geometry">
            <mxPoint x="463" y="760" as="sourcePoint" />
            <mxPoint x="463" y="801" as="targetPoint" />
          </mxGeometry>
        </mxCell>
        <mxCell id="VQDOe3XahySQeZC1Gr37-41" value="&lt;b&gt;Trưởng phòng nhân sự CAP&lt;br&gt;&lt;/b&gt;" style="rounded=1;whiteSpace=wrap;html=1;fontSize=16;" vertex="1" parent="1">
          <mxGeometry x="392" y="806" width="137" height="66" as="geometry" />
        </mxCell>
        <mxCell id="VQDOe3XahySQeZC1Gr37-42" value="" style="endArrow=none;html=1;rounded=0;fontSize=16;exitX=1;exitY=0.5;exitDx=0;exitDy=0;entryX=0;entryY=0.5;entryDx=0;entryDy=0;" edge="1" parent="1" source="VQDOe3XahySQeZC1Gr37-41" target="VQDOe3XahySQeZC1Gr37-39">
          <mxGeometry width="50" height="50" relative="1" as="geometry">
            <mxPoint x="669" y="770" as="sourcePoint" />
            <mxPoint x="732" y="824" as="targetPoint" />
          </mxGeometry>
        </mxCell>
        <mxCell id="VQDOe3XahySQeZC1Gr37-43" value="&lt;b&gt;Phó giám đốc chiến lược CAP&lt;br&gt;&lt;/b&gt;" style="rounded=1;whiteSpace=wrap;html=1;fontSize=16;" vertex="1" parent="1">
          <mxGeometry x="175.5" y="806" width="137" height="66" as="geometry" />
        </mxCell>
        <mxCell id="VQDOe3XahySQeZC1Gr37-44" value="" style="endArrow=none;html=1;rounded=0;fontSize=16;exitX=0.5;exitY=1;exitDx=0;exitDy=0;entryX=0.5;entryY=0;entryDx=0;entryDy=0;" edge="1" parent="1" source="VQDOe3XahySQeZC1Gr37-22" target="VQDOe3XahySQeZC1Gr37-43">
          <mxGeometry width="50" height="50" relative="1" as="geometry">
            <mxPoint x="25" y="582" as="sourcePoint" />
            <mxPoint x="25" y="785" as="targetPoint" />
          </mxGeometry>
        </mxCell>
        <mxCell id="VQDOe3XahySQeZC1Gr37-45" value="" style="endArrow=none;html=1;rounded=0;fontSize=16;entryX=1;entryY=0.5;entryDx=0;entryDy=0;exitX=0;exitY=0.5;exitDx=0;exitDy=0;" edge="1" parent="1" source="VQDOe3XahySQeZC1Gr37-41" target="VQDOe3XahySQeZC1Gr37-43">
          <mxGeometry width="50" height="50" relative="1" as="geometry">
            <mxPoint x="35" y="592" as="sourcePoint" />
            <mxPoint x="35" y="795" as="targetPoint" />
          </mxGeometry>
        </mxCell>
        <mxCell id="VQDOe3XahySQeZC1Gr37-47" value="&lt;b&gt;Quản lý khu vực CAP&lt;br&gt;&lt;/b&gt;" style="rounded=1;whiteSpace=wrap;html=1;fontSize=16;" vertex="1" parent="1">
          <mxGeometry x="33" y="809" width="127" height="60" as="geometry" />
        </mxCell>
        <mxCell id="VQDOe3XahySQeZC1Gr37-48" value="" style="endArrow=none;html=1;rounded=0;fontSize=16;exitX=1;exitY=0.5;exitDx=0;exitDy=0;entryX=0;entryY=0.5;entryDx=0;entryDy=0;" edge="1" parent="1" source="VQDOe3XahySQeZC1Gr37-47" target="VQDOe3XahySQeZC1Gr37-43">
          <mxGeometry width="50" height="50" relative="1" as="geometry">
            <mxPoint x="217" y="773" as="sourcePoint" />
            <mxPoint x="267" y="723" as="targetPoint" />
          </mxGeometry>
        </mxCell>
        <mxCell id="VQDOe3XahySQeZC1Gr37-49" value="" style="endArrow=classic;html=1;rounded=0;fontSize=16;entryX=0;entryY=0.5;entryDx=0;entryDy=0;" edge="1" parent="1" target="VQDOe3XahySQeZC1Gr37-47">
          <mxGeometry width="50" height="50" relative="1" as="geometry">
            <mxPoint x="16" y="839" as="sourcePoint" />
            <mxPoint x="267" y="723" as="targetPoint" />
          </mxGeometry>
        </mxCell>
        <mxCell id="VQDOe3XahySQeZC1Gr37-50" value="" style="endArrow=classic;html=1;rounded=0;fontSize=16;entryX=0;entryY=0.5;entryDx=0;entryDy=0;" edge="1" parent="1">
          <mxGeometry width="50" height="50" relative="1" as="geometry">
            <mxPoint x="16" y="937" as="sourcePoint" />
            <mxPoint x="33" y="937" as="targetPoint" />
          </mxGeometry>
        </mxCell>
        <mxCell id="VQDOe3XahySQeZC1Gr37-51" value="&lt;b&gt;Quản lý khu vực EMEA&lt;br&gt;&lt;/b&gt;" style="rounded=1;whiteSpace=wrap;html=1;fontSize=16;" vertex="1" parent="1">
          <mxGeometry x="33" y="908" width="127" height="60" as="geometry" />
        </mxCell>
        <mxCell id="VQDOe3XahySQeZC1Gr37-52" value="&lt;b&gt;Phó giám đốc chiến lược EMEA&lt;br&gt;&lt;/b&gt;" style="rounded=1;whiteSpace=wrap;html=1;fontSize=16;" vertex="1" parent="1">
          <mxGeometry x="174" y="905" width="137" height="66" as="geometry" />
        </mxCell>
        <mxCell id="VQDOe3XahySQeZC1Gr37-53" value="" style="endArrow=none;html=1;rounded=0;fontSize=16;exitX=1;exitY=0.5;exitDx=0;exitDy=0;entryX=0;entryY=0.5;entryDx=0;entryDy=0;" edge="1" parent="1">
          <mxGeometry width="50" height="50" relative="1" as="geometry">
            <mxPoint x="160" y="940" as="sourcePoint" />
            <mxPoint x="175.5" y="940" as="targetPoint" />
          </mxGeometry>
        </mxCell>
        <mxCell id="VQDOe3XahySQeZC1Gr37-54" value="" style="endArrow=none;html=1;rounded=0;fontSize=16;entryX=1;entryY=0.5;entryDx=0;entryDy=0;exitX=0;exitY=0.5;exitDx=0;exitDy=0;" edge="1" parent="1">
          <mxGeometry width="50" height="50" relative="1" as="geometry">
            <mxPoint x="390.5" y="940" as="sourcePoint" />
            <mxPoint x="311" y="940" as="targetPoint" />
          </mxGeometry>
        </mxCell>
        <mxCell id="VQDOe3XahySQeZC1Gr37-55" value="&lt;b&gt;Trưởng phòng nhân sự EMEA&lt;br&gt;&lt;/b&gt;" style="rounded=1;whiteSpace=wrap;html=1;fontSize=16;" vertex="1" parent="1">
          <mxGeometry x="390" y="908" width="137" height="66" as="geometry" />
        </mxCell>
        <mxCell id="VQDOe3XahySQeZC1Gr37-56" value="" style="endArrow=none;html=1;rounded=0;fontSize=16;exitX=1;exitY=0.5;exitDx=0;exitDy=0;entryX=0;entryY=0.5;entryDx=0;entryDy=0;" edge="1" parent="1">
          <mxGeometry width="50" height="50" relative="1" as="geometry">
            <mxPoint x="527" y="940.5" as="sourcePoint" />
            <mxPoint x="664" y="940.5" as="targetPoint" />
          </mxGeometry>
        </mxCell>
        <mxCell id="VQDOe3XahySQeZC1Gr37-57" value="&lt;b&gt;Thị trường nước ngoài&lt;/b&gt;&lt;b&gt;&lt;br&gt;&lt;/b&gt;" style="rounded=1;whiteSpace=wrap;html=1;fontSize=16;" vertex="1" parent="1">
          <mxGeometry x="664" y="911" width="120" height="60" as="geometry" />
        </mxCell>
        <mxCell id="VQDOe3XahySQeZC1Gr37-58" value="" style="endArrow=classic;html=1;rounded=0;fontSize=16;entryX=0;entryY=0.5;entryDx=0;entryDy=0;" edge="1" parent="1">
          <mxGeometry width="50" height="50" relative="1" as="geometry">
            <mxPoint x="16" y="1038.5" as="sourcePoint" />
            <mxPoint x="33" y="1038.5" as="targetPoint" />
          </mxGeometry>
        </mxCell>
        <mxCell id="VQDOe3XahySQeZC1Gr37-59" value="&lt;b&gt;Quản lý khu vực Châu Mỹ&lt;br&gt;&lt;/b&gt;" style="rounded=1;whiteSpace=wrap;html=1;fontSize=16;" vertex="1" parent="1">
          <mxGeometry x="33" y="1009" width="127" height="60" as="geometry" />
        </mxCell>
        <mxCell id="VQDOe3XahySQeZC1Gr37-60" value="&lt;font style=&quot;font-size: 16px&quot;&gt;&lt;b&gt;Phó giám đốc chiến lược&amp;nbsp;&lt;/b&gt;&lt;b&gt;Châu Mỹ&lt;/b&gt;&lt;/font&gt;&lt;b&gt;&lt;br&gt;&lt;/b&gt;" style="rounded=1;whiteSpace=wrap;html=1;fontSize=16;" vertex="1" parent="1">
          <mxGeometry x="174" y="1006" width="154" height="71" as="geometry" />
        </mxCell>
        <mxCell id="VQDOe3XahySQeZC1Gr37-61" value="" style="endArrow=none;html=1;rounded=0;fontSize=16;exitX=1;exitY=0.5;exitDx=0;exitDy=0;entryX=0;entryY=0.5;entryDx=0;entryDy=0;" edge="1" parent="1">
          <mxGeometry width="50" height="50" relative="1" as="geometry">
            <mxPoint x="160" y="1041" as="sourcePoint" />
            <mxPoint x="175.5" y="1041" as="targetPoint" />
          </mxGeometry>
        </mxCell>
        <mxCell id="VQDOe3XahySQeZC1Gr37-62" value="" style="endArrow=none;html=1;rounded=0;fontSize=16;exitX=0;exitY=0.5;exitDx=0;exitDy=0;" edge="1" parent="1" source="VQDOe3XahySQeZC1Gr37-63">
          <mxGeometry width="50" height="50" relative="1" as="geometry">
            <mxPoint x="384" y="1044" as="sourcePoint" />
            <mxPoint x="328" y="1044" as="targetPoint" />
          </mxGeometry>
        </mxCell>
        <mxCell id="VQDOe3XahySQeZC1Gr37-63" value="&lt;b&gt;Trưởng phòng nhân sự&amp;nbsp;&lt;/b&gt;&lt;b&gt;Châu Mỹ&lt;/b&gt;&lt;b&gt;&lt;br&gt;&lt;/b&gt;" style="rounded=1;whiteSpace=wrap;html=1;fontSize=16;" vertex="1" parent="1">
          <mxGeometry x="390" y="1009" width="137" height="66" as="geometry" />
        </mxCell>
        <mxCell id="VQDOe3XahySQeZC1Gr37-64" value="" style="endArrow=none;html=1;rounded=0;fontSize=16;exitX=1;exitY=0.5;exitDx=0;exitDy=0;entryX=0;entryY=0.5;entryDx=0;entryDy=0;" edge="1" parent="1">
          <mxGeometry width="50" height="50" relative="1" as="geometry">
            <mxPoint x="527" y="1041.5" as="sourcePoint" />
            <mxPoint x="664" y="1041.5" as="targetPoint" />
          </mxGeometry>
        </mxCell>
        <mxCell id="VQDOe3XahySQeZC1Gr37-67" value="&lt;b&gt;Thị trường&amp;nbsp;&lt;br&gt;nội địa&lt;br&gt;&lt;/b&gt;" style="rounded=1;whiteSpace=wrap;html=1;fontSize=16;" vertex="1" parent="1">
          <mxGeometry x="664" y="1012" width="120" height="60" as="geometry" />
        </mxCell>
      </root>
    </mxGraphModel>
  </diagram>
  <diagram id="elN13xi42h41GZ3PlA-M" name="Page-2">
    <mxGraphModel dx="782" dy="706" grid="0" gridSize="10" guides="1" tooltips="1" connect="1" arrows="1" fold="1" page="1" pageScale="1" pageWidth="1169" pageHeight="1654" math="0" shadow="0">
      <root>
        <mxCell id="Vsqq3qi4AqMv9JieY1TZ-0" />
        <mxCell id="Vsqq3qi4AqMv9JieY1TZ-1" parent="Vsqq3qi4AqMv9JieY1TZ-0" />
        <mxCell id="a4AwfvL6sgOTE35p16M7-0" style="edgeStyle=orthogonalEdgeStyle;rounded=0;orthogonalLoop=1;jettySize=auto;html=1;exitX=0.5;exitY=1;exitDx=0;exitDy=0;entryX=0.5;entryY=0;entryDx=0;entryDy=0;fontFamily=Times New Roman;fontSize=16;fontColor=#000000;" edge="1" parent="Vsqq3qi4AqMv9JieY1TZ-1" source="a4AwfvL6sgOTE35p16M7-3" target="a4AwfvL6sgOTE35p16M7-6">
          <mxGeometry relative="1" as="geometry" />
        </mxCell>
        <mxCell id="a4AwfvL6sgOTE35p16M7-1" style="edgeStyle=orthogonalEdgeStyle;rounded=0;orthogonalLoop=1;jettySize=auto;html=1;exitX=0.5;exitY=1;exitDx=0;exitDy=0;fontFamily=Times New Roman;fontSize=16;fontColor=#000000;" edge="1" parent="Vsqq3qi4AqMv9JieY1TZ-1" source="a4AwfvL6sgOTE35p16M7-3" target="a4AwfvL6sgOTE35p16M7-8">
          <mxGeometry relative="1" as="geometry" />
        </mxCell>
        <mxCell id="a4AwfvL6sgOTE35p16M7-2" style="edgeStyle=orthogonalEdgeStyle;rounded=0;orthogonalLoop=1;jettySize=auto;html=1;exitX=0.5;exitY=1;exitDx=0;exitDy=0;fontFamily=Times New Roman;fontSize=16;fontColor=#000000;" edge="1" parent="Vsqq3qi4AqMv9JieY1TZ-1" source="a4AwfvL6sgOTE35p16M7-3" target="a4AwfvL6sgOTE35p16M7-9">
          <mxGeometry relative="1" as="geometry" />
        </mxCell>
        <mxCell id="a4AwfvL6sgOTE35p16M7-3" value="" style="rounded=1;whiteSpace=wrap;html=1;shadow=1;labelBackgroundColor=#FF120A;labelBorderColor=none;sketch=0;fontFamily=Times New Roman;fontSize=30;strokeWidth=1;align=center;verticalAlign=top;fillColor=#FFFFFF;strokeColor=#FFFFFF;" vertex="1" parent="Vsqq3qi4AqMv9JieY1TZ-1">
          <mxGeometry x="327.5" y="274" width="218" height="91" as="geometry" />
        </mxCell>
        <mxCell id="a4AwfvL6sgOTE35p16M7-4" value="&lt;b&gt;District Manager&lt;/b&gt;" style="text;html=1;strokeColor=none;fillColor=none;align=left;verticalAlign=middle;whiteSpace=wrap;rounded=0;shadow=1;labelBackgroundColor=#FFFFFF;labelBorderColor=none;sketch=0;fontFamily=Times New Roman;fontSize=16;fontColor=#000000;" vertex="1" parent="Vsqq3qi4AqMv9JieY1TZ-1">
          <mxGeometry x="378.75" y="280" width="133.5" height="46" as="geometry" />
        </mxCell>
        <mxCell id="a4AwfvL6sgOTE35p16M7-5" value="&lt;b&gt;(Highlands Coffee Shop)&lt;/b&gt;" style="text;html=1;strokeColor=none;fillColor=none;align=left;verticalAlign=middle;whiteSpace=wrap;rounded=0;shadow=1;labelBackgroundColor=#FFFFFF;labelBorderColor=none;sketch=0;fontFamily=Times New Roman;fontSize=16;fontColor=#000000;" vertex="1" parent="Vsqq3qi4AqMv9JieY1TZ-1">
          <mxGeometry x="350" y="307" width="173" height="47" as="geometry" />
        </mxCell>
        <mxCell id="a4AwfvL6sgOTE35p16M7-6" value="&lt;b&gt;Cửa hàng trưởng 1&lt;/b&gt;" style="rounded=1;whiteSpace=wrap;html=1;shadow=1;labelBackgroundColor=#FFFFFF;labelBorderColor=none;sketch=0;fontFamily=Times New Roman;fontSize=16;fontColor=#000000;strokeColor=#FFFFFF;strokeWidth=1;fillColor=#FFFFFF;gradientColor=none;align=center;verticalAlign=top;" vertex="1" parent="Vsqq3qi4AqMv9JieY1TZ-1">
          <mxGeometry x="150" y="437" width="145" height="46" as="geometry" />
        </mxCell>
        <mxCell id="a4AwfvL6sgOTE35p16M7-7" style="edgeStyle=orthogonalEdgeStyle;rounded=0;orthogonalLoop=1;jettySize=auto;html=1;exitX=0.5;exitY=1;exitDx=0;exitDy=0;fontFamily=Times New Roman;fontSize=16;fontColor=#000000;" edge="1" parent="Vsqq3qi4AqMv9JieY1TZ-1" source="a4AwfvL6sgOTE35p16M7-8" target="a4AwfvL6sgOTE35p16M7-15">
          <mxGeometry relative="1" as="geometry" />
        </mxCell>
        <mxCell id="a4AwfvL6sgOTE35p16M7-8" value="&lt;b&gt;Cửa hàng trưởng 2&lt;/b&gt;" style="rounded=1;whiteSpace=wrap;html=1;shadow=1;labelBackgroundColor=#FFFFFF;labelBorderColor=none;sketch=0;fontFamily=Times New Roman;fontSize=16;fontColor=#000000;strokeColor=#FFFFFF;strokeWidth=1;fillColor=#FFFFFF;gradientColor=none;align=center;verticalAlign=top;" vertex="1" parent="Vsqq3qi4AqMv9JieY1TZ-1">
          <mxGeometry x="364" y="437" width="145" height="46" as="geometry" />
        </mxCell>
        <mxCell id="a4AwfvL6sgOTE35p16M7-9" value="&lt;b&gt;Cửa hàng trưởng n..&lt;/b&gt;" style="rounded=1;whiteSpace=wrap;html=1;shadow=1;labelBackgroundColor=#FFFFFF;labelBorderColor=none;sketch=0;fontFamily=Times New Roman;fontSize=16;fontColor=#000000;strokeColor=#FFFFFF;strokeWidth=1;fillColor=#FFFFFF;gradientColor=none;align=center;verticalAlign=top;" vertex="1" parent="Vsqq3qi4AqMv9JieY1TZ-1">
          <mxGeometry x="581" y="437" width="145" height="46" as="geometry" />
        </mxCell>
        <mxCell id="a4AwfvL6sgOTE35p16M7-10" style="edgeStyle=orthogonalEdgeStyle;rounded=0;orthogonalLoop=1;jettySize=auto;html=1;exitX=0.5;exitY=1;exitDx=0;exitDy=0;entryX=0.617;entryY=0.275;entryDx=0;entryDy=0;entryPerimeter=0;fontFamily=Times New Roman;fontSize=16;fontColor=#000000;" edge="1" parent="Vsqq3qi4AqMv9JieY1TZ-1" source="a4AwfvL6sgOTE35p16M7-15" target="a4AwfvL6sgOTE35p16M7-16">
          <mxGeometry relative="1" as="geometry" />
        </mxCell>
        <mxCell id="a4AwfvL6sgOTE35p16M7-11" style="edgeStyle=orthogonalEdgeStyle;rounded=0;orthogonalLoop=1;jettySize=auto;html=1;fontFamily=Times New Roman;fontSize=16;fontColor=#000000;" edge="1" parent="Vsqq3qi4AqMv9JieY1TZ-1">
          <mxGeometry relative="1" as="geometry">
            <mxPoint x="437" y="648" as="sourcePoint" />
            <mxPoint x="292.5" y="701" as="targetPoint" />
          </mxGeometry>
        </mxCell>
        <mxCell id="a4AwfvL6sgOTE35p16M7-12" style="edgeStyle=orthogonalEdgeStyle;rounded=0;orthogonalLoop=1;jettySize=auto;html=1;exitX=0.5;exitY=1;exitDx=0;exitDy=0;fontFamily=Times New Roman;fontSize=16;fontColor=#000000;" edge="1" parent="Vsqq3qi4AqMv9JieY1TZ-1" source="a4AwfvL6sgOTE35p16M7-15" target="a4AwfvL6sgOTE35p16M7-18">
          <mxGeometry relative="1" as="geometry" />
        </mxCell>
        <mxCell id="a4AwfvL6sgOTE35p16M7-13" style="edgeStyle=orthogonalEdgeStyle;rounded=0;orthogonalLoop=1;jettySize=auto;html=1;exitX=0.5;exitY=1;exitDx=0;exitDy=0;fontFamily=Times New Roman;fontSize=16;fontColor=#000000;" edge="1" parent="Vsqq3qi4AqMv9JieY1TZ-1">
          <mxGeometry relative="1" as="geometry">
            <mxPoint x="436.5" y="594" as="sourcePoint" />
            <mxPoint x="581" y="704" as="targetPoint" />
            <Array as="points">
              <mxPoint x="437" y="649" />
              <mxPoint x="581" y="649" />
            </Array>
          </mxGeometry>
        </mxCell>
        <mxCell id="a4AwfvL6sgOTE35p16M7-14" style="edgeStyle=orthogonalEdgeStyle;rounded=0;orthogonalLoop=1;jettySize=auto;html=1;fontFamily=Times New Roman;fontSize=16;fontColor=#000000;" edge="1" parent="Vsqq3qi4AqMv9JieY1TZ-1">
          <mxGeometry relative="1" as="geometry">
            <mxPoint x="580" y="649" as="sourcePoint" />
            <mxPoint x="725" y="704" as="targetPoint" />
            <Array as="points">
              <mxPoint x="725" y="649" />
            </Array>
          </mxGeometry>
        </mxCell>
        <mxCell id="a4AwfvL6sgOTE35p16M7-15" value="&lt;b&gt;Trợ lý cửa hàng trưởng&amp;nbsp;&lt;/b&gt;" style="rounded=1;whiteSpace=wrap;html=1;shadow=1;labelBackgroundColor=#FFFFFF;labelBorderColor=none;sketch=0;fontFamily=Times New Roman;fontSize=16;fontColor=#000000;strokeColor=#FFFFFF;strokeWidth=1;fillColor=#FFFFFF;gradientColor=none;align=center;verticalAlign=top;" vertex="1" parent="Vsqq3qi4AqMv9JieY1TZ-1">
          <mxGeometry x="346.5" y="549" width="180" height="47" as="geometry" />
        </mxCell>
        <mxCell id="a4AwfvL6sgOTE35p16M7-16" value="Nhân viên &lt;br&gt;&lt;span style=&quot;color: rgba(0 , 0 , 0 , 0) ; font-family: monospace ; font-size: 0px ; background-color: rgb(248 , 249 , 250)&quot;&gt;%3CmxGraphModel%3E%3Croot%3E%3CmxCell%20id%3D%220%22%2F%3E%3CmxCell%20id%3D%221%22%20parent%3D%220%22%2F%3E%3CmxCell%20id%3D%222%22%20value%3D%22%26lt%3Bb%26gt%3BC%E1%BB%ADa%20h%C3%A0ng%20tr%C6%B0%E1%BB%9Fng%202%26lt%3B%2Fb%26gt%3B%22%20style%3D%22rounded%3D1%3BwhiteSpace%3Dwrap%3Bhtml%3D1%3Bshadow%3D1%3BlabelBackgroundColor%3D%23FFFFFF%3BlabelBorderColor%3Dnone%3Bsketch%3D0%3BfontFamily%3DTimes%20New%20Roman%3BfontSize%3D16%3BfontColor%3D%23000000%3BstrokeColor%3D%23FFFFFF%3BstrokeWidth%3D1%3BfillColor%3D%23FFFFFF%3BgradientColor%3Dnone%3Balign%3Dcenter%3BverticalAlign%3Dtop%3B%22%20vertex%3D%221%22%20parent%3D%221%22%3E%3CmxGeometry%20x%3D%22364%22%20y%3D%22437%22%20width%3D%22145%22%20height%3D%2246%22%20as%3D%22geometry%22%2F%3E%3C%2FmxCell%3E%3C%2Froot%3E%3C%2FmxGraphModel%3E&lt;/span&gt;pha chế" style="rounded=1;whiteSpace=wrap;html=1;shadow=1;labelBackgroundColor=#FFFFFF;labelBorderColor=none;sketch=0;fontFamily=Times New Roman;fontSize=16;fontColor=#000000;strokeColor=#FFFFFF;strokeWidth=1;fillColor=#FFFFFF;gradientColor=none;align=center;verticalAlign=top;" vertex="1" parent="Vsqq3qi4AqMv9JieY1TZ-1">
          <mxGeometry x="95" y="701" width="107" height="80" as="geometry" />
        </mxCell>
        <mxCell id="a4AwfvL6sgOTE35p16M7-17" value="Nhân viên &lt;br&gt;&lt;span style=&quot;color: rgba(0 , 0 , 0 , 0) ; font-family: monospace ; font-size: 0px ; background-color: rgb(248 , 249 , 250)&quot;&gt;%3CmxGraphModel%3E%3Croot%3E%3CmxCell%20id%3D%220%22%2F%3E%3CmxCell%20id%3D%221%22%20parent%3D%220%22%2F%3E%3CmxCell%20id%3D%222%22%20value%3D%22%26lt%3Bb%26gt%3BC%E1%BB%ADa%20h%C3%A0ng%20tr%C6%B0%E1%BB%9Fng%202%26lt%3B%2Fb%26gt%3B%22%20style%3D%22rounded%3D1%3BwhiteSpace%3Dwrap%3Bhtml%3D1%3Bshadow%3D1%3BlabelBackgroundColor%3D%23FFFFFF%3BlabelBorderColor%3Dnone%3Bsketch%3D0%3BfontFamily%3DTimes%20New%20Roman%3BfontSize%3D16%3BfontColor%3D%23000000%3BstrokeColor%3D%23FFFFFF%3BstrokeWidth%3D1%3BfillColor%3D%23FFFFFF%3BgradientColor%3Dnone%3Balign%3Dcenter%3BverticalAlign%3Dtop%3B%22%20vertex%3D%221%22%20parent%3D%221%22%3E%3CmxGeometry%20x%3D%22364%22%20y%3D%22437%22%20width%3D%22145%22%20height%3D%2246%22%20as%3D%22geometry%22%2F%3E%3C%2FmxCell%3E%3C%2Froot%3E%3C%2FmxGraphModel%3E&lt;/span&gt;phục vụ" style="rounded=1;whiteSpace=wrap;html=1;shadow=1;labelBackgroundColor=#FFFFFF;labelBorderColor=none;sketch=0;fontFamily=Times New Roman;fontSize=16;fontColor=#000000;strokeColor=#FFFFFF;strokeWidth=1;fillColor=#FFFFFF;gradientColor=none;align=center;verticalAlign=top;" vertex="1" parent="Vsqq3qi4AqMv9JieY1TZ-1">
          <mxGeometry x="239" y="703" width="107" height="80" as="geometry" />
        </mxCell>
        <mxCell id="a4AwfvL6sgOTE35p16M7-18" value="Nhân viên &lt;br&gt;thu ngân&lt;br&gt;&lt;span style=&quot;color: rgba(0 , 0 , 0 , 0) ; font-family: monospace ; font-size: 0px ; background-color: rgb(248 , 249 , 250)&quot;&gt;%3CmxGraphModel%3E%3Croot%3E%3CmxCell%20id%3D%220%22%2F%3E%3CmxCell%20id%3D%221%22%20parent%3D%220%22%2F%3E%3CmxCell%20id%3D%222%22%20value%3D%22%26lt%3Bb%26gt%3BC%E1%BB%ADa%20h%C3%A0ng%20tr%C6%B0%E1%BB%9Fng%202%26lt%3B%2Fb%26gt%3B%22%20style%3D%22rounded%3D1%3BwhiteSpace%3Dwrap%3Bhtml%3D1%3Bshadow%3D1%3BlabelBackgroundColor%3D%23FFFFFF%3BlabelBorderColor%3Dnone%3Bsketch%3D0%3BfontFamily%3DTimes%20New%20Roman%3BfontSize%3D16%3BfontColor%3D%23000000%3BstrokeColor%3D%23FFFFFF%3BstrokeWidth%3D1%3BfillColor%3D%23FFFFFF%3BgradientColor%3Dnone%3Balign%3Dcenter%3BverticalAlign%3Dtop%3B%22%20vertex%3D%221%22%20parent%3D%221%22%3E%3CmxGeometry%20x%3D%22364%22%20y%3D%22437%22%20width%3D%22145%22%20height%3D%2246%22%20as%3D%22geometry%22%2F%3E%3C%2FmxCell%3E%3C%2Froot%3E%3C%2FmxGraphModel%3Ethu ngâ&lt;/span&gt;" style="rounded=1;whiteSpace=wrap;html=1;shadow=1;labelBackgroundColor=#FFFFFF;labelBorderColor=none;sketch=0;fontFamily=Times New Roman;fontSize=16;fontColor=#000000;strokeColor=#FFFFFF;strokeWidth=1;fillColor=#FFFFFF;gradientColor=none;align=center;verticalAlign=top;" vertex="1" parent="Vsqq3qi4AqMv9JieY1TZ-1">
          <mxGeometry x="383" y="706" width="107" height="80" as="geometry" />
        </mxCell>
        <mxCell id="a4AwfvL6sgOTE35p16M7-19" value="Nhân viên &lt;br&gt;giao hàng&lt;br&gt;&lt;font color=&quot;rgba(0, 0, 0, 0)&quot; face=&quot;monospace&quot;&gt;&lt;span style=&quot;font-size: 0px ; background-color: rgb(248 , 249 , 250)&quot;&gt;giao hàng&lt;/span&gt;&lt;/font&gt;" style="rounded=1;whiteSpace=wrap;html=1;shadow=1;labelBackgroundColor=#FFFFFF;labelBorderColor=none;sketch=0;fontFamily=Times New Roman;fontSize=16;fontColor=#000000;strokeColor=#FFFFFF;strokeWidth=1;fillColor=#FFFFFF;gradientColor=none;align=center;verticalAlign=top;" vertex="1" parent="Vsqq3qi4AqMv9JieY1TZ-1">
          <mxGeometry x="527" y="706" width="107" height="80" as="geometry" />
        </mxCell>
        <mxCell id="a4AwfvL6sgOTE35p16M7-20" value="Nhân viên &lt;br&gt;bảo vệ&lt;br&gt;&lt;font color=&quot;rgba(0, 0, 0, 0)&quot; face=&quot;monospace&quot;&gt;&lt;span style=&quot;font-size: 0px ; background-color: rgb(248 , 249 , 250)&quot;&gt;ba&lt;/span&gt;&lt;/font&gt;" style="rounded=1;whiteSpace=wrap;html=1;shadow=1;labelBackgroundColor=#FFFFFF;labelBorderColor=none;sketch=0;fontFamily=Times New Roman;fontSize=16;fontColor=#000000;strokeColor=#FFFFFF;strokeWidth=1;fillColor=#FFFFFF;gradientColor=none;align=center;verticalAlign=top;" vertex="1" parent="Vsqq3qi4AqMv9JieY1TZ-1">
          <mxGeometry x="671" y="706" width="107" height="80" as="geometry" />
        </mxCell>
      </root>
    </mxGraphModel>
  </diagram>
  <diagram id="viL5PqvFY_cYdEAzo_DH" name="Page-3">
    <mxGraphModel dx="782" dy="706" grid="0" gridSize="10" guides="1" tooltips="1" connect="1" arrows="1" fold="1" page="1" pageScale="1" pageWidth="1169" pageHeight="1654" math="0" shadow="0">
      <root>
        <mxCell id="q8Uv-0Pn_na_6t9x-wON-0" />
        <mxCell id="q8Uv-0Pn_na_6t9x-wON-1" parent="q8Uv-0Pn_na_6t9x-wON-0" />
        <mxCell id="bl-M_f51yVPWPWLqKVws-2" style="edgeStyle=orthogonalEdgeStyle;rounded=0;orthogonalLoop=1;jettySize=auto;html=1;exitX=0.5;exitY=1;exitDx=0;exitDy=0;entryX=0.5;entryY=0;entryDx=0;entryDy=0;fontFamily=Times New Roman;fontSize=16;fontColor=#000000;" edge="1" parent="q8Uv-0Pn_na_6t9x-wON-1" source="bl-M_f51yVPWPWLqKVws-5" target="bl-M_f51yVPWPWLqKVws-8">
          <mxGeometry relative="1" as="geometry" />
        </mxCell>
        <mxCell id="bl-M_f51yVPWPWLqKVws-3" style="edgeStyle=orthogonalEdgeStyle;rounded=0;orthogonalLoop=1;jettySize=auto;html=1;exitX=0.5;exitY=1;exitDx=0;exitDy=0;fontFamily=Times New Roman;fontSize=16;fontColor=#000000;" edge="1" parent="q8Uv-0Pn_na_6t9x-wON-1" source="bl-M_f51yVPWPWLqKVws-5" target="bl-M_f51yVPWPWLqKVws-10">
          <mxGeometry relative="1" as="geometry" />
        </mxCell>
        <mxCell id="bl-M_f51yVPWPWLqKVws-4" style="edgeStyle=orthogonalEdgeStyle;rounded=0;orthogonalLoop=1;jettySize=auto;html=1;exitX=0.5;exitY=1;exitDx=0;exitDy=0;fontFamily=Times New Roman;fontSize=16;fontColor=#000000;" edge="1" parent="q8Uv-0Pn_na_6t9x-wON-1" source="bl-M_f51yVPWPWLqKVws-5" target="bl-M_f51yVPWPWLqKVws-11">
          <mxGeometry relative="1" as="geometry" />
        </mxCell>
        <mxCell id="bl-M_f51yVPWPWLqKVws-5" value="" style="rounded=1;whiteSpace=wrap;html=1;shadow=1;labelBackgroundColor=#FF120A;labelBorderColor=none;sketch=0;fontFamily=Times New Roman;fontSize=30;strokeWidth=1;align=center;verticalAlign=top;fillColor=#FFFFFF;strokeColor=#000000;" vertex="1" parent="q8Uv-0Pn_na_6t9x-wON-1">
          <mxGeometry x="337.5" y="284" width="218" height="91" as="geometry" />
        </mxCell>
        <mxCell id="bl-M_f51yVPWPWLqKVws-6" value="&lt;b&gt;District Manager&lt;/b&gt;" style="text;html=1;strokeColor=none;fillColor=none;align=left;verticalAlign=middle;whiteSpace=wrap;rounded=0;shadow=1;labelBackgroundColor=#FFFFFF;labelBorderColor=none;sketch=0;fontFamily=Times New Roman;fontSize=16;fontColor=#000000;" vertex="1" parent="q8Uv-0Pn_na_6t9x-wON-1">
          <mxGeometry x="388.75" y="290" width="133.5" height="46" as="geometry" />
        </mxCell>
        <mxCell id="bl-M_f51yVPWPWLqKVws-7" value="&lt;b&gt;(Highlands Coffee Shop)&lt;/b&gt;" style="text;html=1;strokeColor=none;fillColor=none;align=left;verticalAlign=middle;whiteSpace=wrap;rounded=0;shadow=1;labelBackgroundColor=#FFFFFF;labelBorderColor=none;sketch=0;fontFamily=Times New Roman;fontSize=16;fontColor=#000000;" vertex="1" parent="q8Uv-0Pn_na_6t9x-wON-1">
          <mxGeometry x="360" y="317" width="173" height="47" as="geometry" />
        </mxCell>
        <mxCell id="bl-M_f51yVPWPWLqKVws-8" value="&lt;b&gt;Cửa hàng trưởng 1&lt;/b&gt;" style="rounded=1;whiteSpace=wrap;html=1;shadow=1;labelBackgroundColor=#FFFFFF;labelBorderColor=none;sketch=0;fontFamily=Times New Roman;fontSize=16;fontColor=#000000;strokeColor=#000000;strokeWidth=1;fillColor=#FFFFFF;gradientColor=none;align=center;verticalAlign=top;" vertex="1" parent="q8Uv-0Pn_na_6t9x-wON-1">
          <mxGeometry x="160" y="447" width="145" height="46" as="geometry" />
        </mxCell>
        <mxCell id="bl-M_f51yVPWPWLqKVws-9" style="edgeStyle=orthogonalEdgeStyle;rounded=0;orthogonalLoop=1;jettySize=auto;html=1;exitX=0.5;exitY=1;exitDx=0;exitDy=0;fontFamily=Times New Roman;fontSize=16;fontColor=#000000;" edge="1" parent="q8Uv-0Pn_na_6t9x-wON-1" source="bl-M_f51yVPWPWLqKVws-10" target="bl-M_f51yVPWPWLqKVws-17">
          <mxGeometry relative="1" as="geometry" />
        </mxCell>
        <mxCell id="bl-M_f51yVPWPWLqKVws-10" value="&lt;b&gt;Cửa hàng trưởng 2&lt;/b&gt;" style="rounded=1;whiteSpace=wrap;html=1;shadow=1;labelBackgroundColor=#FFFFFF;labelBorderColor=none;sketch=0;fontFamily=Times New Roman;fontSize=16;fontColor=#000000;strokeColor=#000000;strokeWidth=1;fillColor=#FFFFFF;gradientColor=none;align=center;verticalAlign=top;" vertex="1" parent="q8Uv-0Pn_na_6t9x-wON-1">
          <mxGeometry x="374" y="447" width="145" height="46" as="geometry" />
        </mxCell>
        <mxCell id="bl-M_f51yVPWPWLqKVws-11" value="&lt;b&gt;Cửa hàng trưởng n..&lt;/b&gt;" style="rounded=1;whiteSpace=wrap;html=1;shadow=1;labelBackgroundColor=#FFFFFF;labelBorderColor=none;sketch=0;fontFamily=Times New Roman;fontSize=16;fontColor=#000000;strokeColor=#000000;strokeWidth=1;fillColor=#FFFFFF;gradientColor=none;align=center;verticalAlign=top;" vertex="1" parent="q8Uv-0Pn_na_6t9x-wON-1">
          <mxGeometry x="591" y="447" width="145" height="46" as="geometry" />
        </mxCell>
        <mxCell id="bl-M_f51yVPWPWLqKVws-12" style="edgeStyle=orthogonalEdgeStyle;rounded=0;orthogonalLoop=1;jettySize=auto;html=1;exitX=0.5;exitY=1;exitDx=0;exitDy=0;entryX=0.617;entryY=0.275;entryDx=0;entryDy=0;entryPerimeter=0;fontFamily=Times New Roman;fontSize=16;fontColor=#000000;" edge="1" parent="q8Uv-0Pn_na_6t9x-wON-1" source="bl-M_f51yVPWPWLqKVws-17" target="bl-M_f51yVPWPWLqKVws-18">
          <mxGeometry relative="1" as="geometry" />
        </mxCell>
        <mxCell id="bl-M_f51yVPWPWLqKVws-13" style="edgeStyle=orthogonalEdgeStyle;rounded=0;orthogonalLoop=1;jettySize=auto;html=1;fontFamily=Times New Roman;fontSize=16;fontColor=#000000;" edge="1" parent="q8Uv-0Pn_na_6t9x-wON-1">
          <mxGeometry relative="1" as="geometry">
            <mxPoint x="447" y="658" as="sourcePoint" />
            <mxPoint x="302.5" y="711" as="targetPoint" />
          </mxGeometry>
        </mxCell>
        <mxCell id="bl-M_f51yVPWPWLqKVws-14" style="edgeStyle=orthogonalEdgeStyle;rounded=0;orthogonalLoop=1;jettySize=auto;html=1;exitX=0.5;exitY=1;exitDx=0;exitDy=0;fontFamily=Times New Roman;fontSize=16;fontColor=#000000;" edge="1" parent="q8Uv-0Pn_na_6t9x-wON-1" source="bl-M_f51yVPWPWLqKVws-17" target="bl-M_f51yVPWPWLqKVws-20">
          <mxGeometry relative="1" as="geometry" />
        </mxCell>
        <mxCell id="bl-M_f51yVPWPWLqKVws-15" style="edgeStyle=orthogonalEdgeStyle;rounded=0;orthogonalLoop=1;jettySize=auto;html=1;exitX=0.5;exitY=1;exitDx=0;exitDy=0;fontFamily=Times New Roman;fontSize=16;fontColor=#000000;" edge="1" parent="q8Uv-0Pn_na_6t9x-wON-1">
          <mxGeometry relative="1" as="geometry">
            <mxPoint x="446.5" y="604" as="sourcePoint" />
            <mxPoint x="591" y="714" as="targetPoint" />
            <Array as="points">
              <mxPoint x="447" y="659" />
              <mxPoint x="591" y="659" />
            </Array>
          </mxGeometry>
        </mxCell>
        <mxCell id="bl-M_f51yVPWPWLqKVws-16" style="edgeStyle=orthogonalEdgeStyle;rounded=0;orthogonalLoop=1;jettySize=auto;html=1;fontFamily=Times New Roman;fontSize=16;fontColor=#000000;" edge="1" parent="q8Uv-0Pn_na_6t9x-wON-1">
          <mxGeometry relative="1" as="geometry">
            <mxPoint x="590" y="659" as="sourcePoint" />
            <mxPoint x="735" y="714" as="targetPoint" />
            <Array as="points">
              <mxPoint x="735" y="659" />
            </Array>
          </mxGeometry>
        </mxCell>
        <mxCell id="bl-M_f51yVPWPWLqKVws-17" value="&lt;b&gt;Trợ lý cửa hàng trưởng&amp;nbsp;&lt;/b&gt;" style="rounded=1;whiteSpace=wrap;html=1;shadow=1;labelBackgroundColor=#FFFFFF;labelBorderColor=none;sketch=0;fontFamily=Times New Roman;fontSize=16;fontColor=#000000;strokeColor=#000000;strokeWidth=1;fillColor=#FFFFFF;gradientColor=none;align=center;verticalAlign=top;" vertex="1" parent="q8Uv-0Pn_na_6t9x-wON-1">
          <mxGeometry x="356.5" y="559" width="180" height="47" as="geometry" />
        </mxCell>
        <mxCell id="bl-M_f51yVPWPWLqKVws-18" value="&lt;b&gt;Nhân viên &lt;br&gt;&lt;span style=&quot;color: rgba(0 , 0 , 0 , 0) ; font-family: monospace ; font-size: 0px ; background-color: rgb(248 , 249 , 250)&quot;&gt;%3CmxGraphModel%3E%3Croot%3E%3CmxCell%20id%3D%220%22%2F%3E%3CmxCell%20id%3D%221%22%20parent%3D%220%22%2F%3E%3CmxCell%20id%3D%222%22%20value%3D%22%26lt%3Bb%26gt%3BC%E1%BB%ADa%20h%C3%A0ng%20tr%C6%B0%E1%BB%9Fng%202%26lt%3B%2Fb%26gt%3B%22%20style%3D%22rounded%3D1%3BwhiteSpace%3Dwrap%3Bhtml%3D1%3Bshadow%3D1%3BlabelBackgroundColor%3D%23FFFFFF%3BlabelBorderColor%3Dnone%3Bsketch%3D0%3BfontFamily%3DTimes%20New%20Roman%3BfontSize%3D16%3BfontColor%3D%23000000%3BstrokeColor%3D%23FFFFFF%3BstrokeWidth%3D1%3BfillColor%3D%23FFFFFF%3BgradientColor%3Dnone%3Balign%3Dcenter%3BverticalAlign%3Dtop%3B%22%20vertex%3D%221%22%20parent%3D%221%22%3E%3CmxGeometry%20x%3D%22364%22%20y%3D%22437%22%20width%3D%22145%22%20height%3D%2246%22%20as%3D%22geometry%22%2F%3E%3C%2FmxCell%3E%3C%2Froot%3E%3C%2FmxGraphModel%3E&lt;/span&gt;pha chế&lt;/b&gt;" style="rounded=1;whiteSpace=wrap;html=1;shadow=1;labelBackgroundColor=#FFFFFF;labelBorderColor=none;sketch=0;fontFamily=Times New Roman;fontSize=16;fontColor=#000000;strokeColor=#000000;strokeWidth=1;fillColor=#FFFFFF;gradientColor=none;align=center;verticalAlign=top;" vertex="1" parent="q8Uv-0Pn_na_6t9x-wON-1">
          <mxGeometry x="105" y="711" width="107" height="80" as="geometry" />
        </mxCell>
        <mxCell id="bl-M_f51yVPWPWLqKVws-19" value="&lt;b&gt;Nhân viên &lt;br&gt;&lt;span style=&quot;color: rgba(0 , 0 , 0 , 0) ; font-family: monospace ; font-size: 0px ; background-color: rgb(248 , 249 , 250)&quot;&gt;%3CmxGraphModel%3E%3Croot%3E%3CmxCell%20id%3D%220%22%2F%3E%3CmxCell%20id%3D%221%22%20parent%3D%220%22%2F%3E%3CmxCell%20id%3D%222%22%20value%3D%22%26lt%3Bb%26gt%3BC%E1%BB%ADa%20h%C3%A0ng%20tr%C6%B0%E1%BB%9Fng%202%26lt%3B%2Fb%26gt%3B%22%20style%3D%22rounded%3D1%3BwhiteSpace%3Dwrap%3Bhtml%3D1%3Bshadow%3D1%3BlabelBackgroundColor%3D%23FFFFFF%3BlabelBorderColor%3Dnone%3Bsketch%3D0%3BfontFamily%3DTimes%20New%20Roman%3BfontSize%3D16%3BfontColor%3D%23000000%3BstrokeColor%3D%23FFFFFF%3BstrokeWidth%3D1%3BfillColor%3D%23FFFFFF%3BgradientColor%3Dnone%3Balign%3Dcenter%3BverticalAlign%3Dtop%3B%22%20vertex%3D%221%22%20parent%3D%221%22%3E%3CmxGeometry%20x%3D%22364%22%20y%3D%22437%22%20width%3D%22145%22%20height%3D%2246%22%20as%3D%22geometry%22%2F%3E%3C%2FmxCell%3E%3C%2Froot%3E%3C%2FmxGraphModel%3E&lt;/span&gt;phục vụ&lt;/b&gt;" style="rounded=1;whiteSpace=wrap;html=1;shadow=1;labelBackgroundColor=#FFFFFF;labelBorderColor=none;sketch=0;fontFamily=Times New Roman;fontSize=16;fontColor=#000000;strokeColor=#000000;strokeWidth=1;fillColor=#FFFFFF;gradientColor=none;align=center;verticalAlign=top;" vertex="1" parent="q8Uv-0Pn_na_6t9x-wON-1">
          <mxGeometry x="249" y="713" width="107" height="80" as="geometry" />
        </mxCell>
        <mxCell id="bl-M_f51yVPWPWLqKVws-20" value="&lt;b&gt;Nhân viên &lt;br&gt;thu ngân&lt;br&gt;&lt;span style=&quot;color: rgba(0 , 0 , 0 , 0) ; font-family: monospace ; font-size: 0px ; background-color: rgb(248 , 249 , 250)&quot;&gt;%3CmxGraphModel%3E%3Croot%3E%3CmxCell%20id%3D%220%22%2F%3E%3CmxCell%20id%3D%221%22%20parent%3D%220%22%2F%3E%3CmxCell%20id%3D%222%22%20value%3D%22%26lt%3Bb%26gt%3BC%E1%BB%ADa%20h%C3%A0ng%20tr%C6%B0%E1%BB%9Fng%202%26lt%3B%2Fb%26gt%3B%22%20style%3D%22rounded%3D1%3BwhiteSpace%3Dwrap%3Bhtml%3D1%3Bshadow%3D1%3BlabelBackgroundColor%3D%23FFFFFF%3BlabelBorderColor%3Dnone%3Bsketch%3D0%3BfontFamily%3DTimes%20New%20Roman%3BfontSize%3D16%3BfontColor%3D%23000000%3BstrokeColor%3D%23FFFFFF%3BstrokeWidth%3D1%3BfillColor%3D%23FFFFFF%3BgradientColor%3Dnone%3Balign%3Dcenter%3BverticalAlign%3Dtop%3B%22%20vertex%3D%221%22%20parent%3D%221%22%3E%3CmxGeometry%20x%3D%22364%22%20y%3D%22437%22%20width%3D%22145%22%20height%3D%2246%22%20as%3D%22geometry%22%2F%3E%3C%2FmxCell%3E%3C%2Froot%3E%3C%2FmxGraphModel%3Ethu ngâ&lt;/span&gt;&lt;/b&gt;" style="rounded=1;whiteSpace=wrap;html=1;shadow=1;labelBackgroundColor=#FFFFFF;labelBorderColor=none;sketch=0;fontFamily=Times New Roman;fontSize=16;fontColor=#000000;strokeColor=#000000;strokeWidth=1;fillColor=#FFFFFF;gradientColor=none;align=center;verticalAlign=top;" vertex="1" parent="q8Uv-0Pn_na_6t9x-wON-1">
          <mxGeometry x="393" y="716" width="107" height="80" as="geometry" />
        </mxCell>
        <mxCell id="bl-M_f51yVPWPWLqKVws-21" value="&lt;b&gt;Nhân viên &lt;br&gt;giao hàng&lt;br&gt;&lt;font color=&quot;rgba(0, 0, 0, 0)&quot; face=&quot;monospace&quot;&gt;&lt;span style=&quot;font-size: 0px ; background-color: rgb(248 , 249 , 250)&quot;&gt;giao hàng&lt;/span&gt;&lt;/font&gt;&lt;/b&gt;" style="rounded=1;whiteSpace=wrap;html=1;shadow=1;labelBackgroundColor=#FFFFFF;labelBorderColor=none;sketch=0;fontFamily=Times New Roman;fontSize=16;fontColor=#000000;strokeColor=#000000;strokeWidth=1;fillColor=#FFFFFF;gradientColor=none;align=center;verticalAlign=top;" vertex="1" parent="q8Uv-0Pn_na_6t9x-wON-1">
          <mxGeometry x="537" y="716" width="107" height="80" as="geometry" />
        </mxCell>
        <mxCell id="bl-M_f51yVPWPWLqKVws-22" value="&lt;b&gt;Nhân viên &lt;br&gt;bảo vệ&lt;br&gt;&lt;font color=&quot;rgba(0, 0, 0, 0)&quot; face=&quot;monospace&quot;&gt;&lt;span style=&quot;font-size: 0px ; background-color: rgb(248 , 249 , 250)&quot;&gt;ba&lt;/span&gt;&lt;/font&gt;&lt;/b&gt;" style="rounded=1;whiteSpace=wrap;html=1;shadow=1;labelBackgroundColor=#FFFFFF;labelBorderColor=none;sketch=0;fontFamily=Times New Roman;fontSize=16;fontColor=#000000;strokeColor=#000000;strokeWidth=1;fillColor=#FFFFFF;gradientColor=none;align=center;verticalAlign=top;" vertex="1" parent="q8Uv-0Pn_na_6t9x-wON-1">
          <mxGeometry x="681" y="716" width="107" height="80" as="geometry" />
        </mxCell>
      </root>
    </mxGraphModel>
  </diagram>
</mxfile>
